<mxfile host="app.diagrams.net" modified="2024-05-13T08:44:11.114Z" agent="Mozilla/5.0 (Windows NT 10.0; Win64; x64) AppleWebKit/537.36 (KHTML, like Gecko) Chrome/124.0.0.0 Safari/537.36" version="24.4.0" etag="IACP-VXsd0pcse_frbVs" type="github">
  <diagram name="Страница — 1" id="PXq9dEXaJLU0oM0Zu0sh">
    <mxGraphModel>
      <root>
        <mxCell id="0" />
        <mxCell id="1" parent="0" />
      </root>
    </mxGraphModel>
  </diagram>
</mxfile>
